%TF.GenerationSoftware,KiCad,Pcbnew,(6.0.4)*%
%TF.CreationDate,2022-03-25T09:15:47-07:00*%
%TF.ProjectId,LT8490,4c543834-3930-42e6-9b69-6361645f7063,rev?*%
%TF.SameCoordinates,Original*%
%TF.FileFunction,Paste,Top*%
%TF.FilePolarity,Positive*%
%FSLAX46Y46*%
G04 Gerber Fmt 4.6, Leading zero omitted, Abs format (unit mm)*
G04 Created by KiCad (PCBNEW (6.0.4)) date 2022-03-25 09:15:47*
%MOMM*%
%LPD*%
G01*
G04 APERTURE LIST*
G04 Aperture macros list*
%AMRoundRect*
0 Rectangle with rounded corners*
0 $1 Rounding radius*
0 $2 $3 $4 $5 $6 $7 $8 $9 X,Y pos of 4 corners*
0 Add a 4 corners polygon primitive as box body*
4,1,4,$2,$3,$4,$5,$6,$7,$8,$9,$2,$3,0*
0 Add four circle primitives for the rounded corners*
1,1,$1+$1,$2,$3*
1,1,$1+$1,$4,$5*
1,1,$1+$1,$6,$7*
1,1,$1+$1,$8,$9*
0 Add four rect primitives between the rounded corners*
20,1,$1+$1,$2,$3,$4,$5,0*
20,1,$1+$1,$4,$5,$6,$7,0*
20,1,$1+$1,$6,$7,$8,$9,0*
20,1,$1+$1,$8,$9,$2,$3,0*%
%AMFreePoly0*
4,1,19,1.687500,-6.062500,-1.115415,-6.062500,-1.237554,-6.049986,-1.362185,-6.008648,-1.472839,-5.940439,-1.564831,-5.848608,-1.633233,-5.738073,-1.674763,-5.613590,-1.687500,-5.490336,-1.687500,5.490415,-1.674986,5.612554,-1.633648,5.737185,-1.565439,5.847839,-1.473608,5.939831,-1.363073,6.008233,-1.238590,6.049763,-1.115336,6.062500,1.687500,6.062500,1.687500,-6.062500,1.687500,-6.062500,
$1*%
%AMFreePoly1*
4,1,19,1.237554,6.049986,1.362185,6.008648,1.472839,5.940439,1.564831,5.848608,1.633233,5.738073,1.674763,5.613590,1.687500,5.490336,1.687500,-5.490415,1.674986,-5.612554,1.633648,-5.737185,1.565439,-5.847839,1.473608,-5.939831,1.363073,-6.008233,1.238590,-6.049763,1.115336,-6.062500,-1.687500,-6.062500,-1.687500,6.062500,1.115415,6.062500,1.237554,6.049986,1.237554,6.049986,
$1*%
%AMFreePoly2*
4,1,10,1.525000,-4.640000,-1.975000,-4.640000,-1.975000,-0.910000,-1.575000,-0.910000,-1.539645,-0.895355,-1.525000,-0.860000,-1.525000,4.319290,-1.204290,4.640000,1.525000,4.640000,1.525000,-4.640000,1.525000,-4.640000,$1*%
G04 Aperture macros list end*
%ADD10RoundRect,0.160000X0.267500X-0.200000X0.267500X0.200000X-0.267500X0.200000X-0.267500X-0.200000X0*%
%ADD11RoundRect,0.160000X-0.200000X-0.267500X0.200000X-0.267500X0.200000X0.267500X-0.200000X0.267500X0*%
%ADD12RoundRect,0.160000X-0.267500X0.200000X-0.267500X-0.200000X0.267500X-0.200000X0.267500X0.200000X0*%
%ADD13RoundRect,0.200000X0.250000X0.452500X-0.250000X0.452500X-0.250000X-0.452500X0.250000X-0.452500X0*%
%ADD14RoundRect,0.180000X-0.247500X0.225000X-0.247500X-0.225000X0.247500X-0.225000X0.247500X0.225000X0*%
%ADD15RoundRect,0.180000X-0.225000X-0.247500X0.225000X-0.247500X0.225000X0.247500X-0.225000X0.247500X0*%
%ADD16R,0.990000X0.990000*%
%ADD17R,0.585000X0.360000*%
%ADD18RoundRect,0.200000X-0.250000X-0.452500X0.250000X-0.452500X0.250000X0.452500X-0.250000X0.452500X0*%
%ADD19R,0.364500X0.891000*%
%ADD20R,0.364500X0.459000*%
%ADD21R,0.069300X0.225000*%
%ADD22R,2.011500X1.552500*%
%ADD23RoundRect,0.160000X0.200000X0.267500X-0.200000X0.267500X-0.200000X-0.267500X0.200000X-0.267500X0*%
%ADD24RoundRect,0.180000X0.247500X-0.225000X0.247500X0.225000X-0.247500X0.225000X-0.247500X-0.225000X0*%
%ADD25RoundRect,0.180000X0.225000X0.247500X-0.225000X0.247500X-0.225000X-0.247500X0.225000X-0.247500X0*%
%ADD26R,0.540000X0.360000*%
%ADD27FreePoly0,0.000000*%
%ADD28FreePoly1,0.000000*%
%ADD29RoundRect,0.193750X-0.312500X-0.593750X0.312500X-0.593750X0.312500X0.593750X-0.312500X0.593750X0*%
%ADD30R,0.630000X0.225000*%
%ADD31R,1.620000X0.225000*%
%ADD32R,0.225000X0.630000*%
%ADD33R,1.350000X0.225000*%
%ADD34FreePoly2,180.000000*%
%ADD35RoundRect,0.193750X-0.593750X0.312500X-0.593750X-0.312500X0.593750X-0.312500X0.593750X0.312500X0*%
%ADD36RoundRect,0.146250X1.001250X-0.787500X1.001250X0.787500X-1.001250X0.787500X-1.001250X-0.787500X0*%
%ADD37RoundRect,0.200000X-0.452500X0.250000X-0.452500X-0.250000X0.452500X-0.250000X0.452500X0.250000X0*%
G04 APERTURE END LIST*
D10*
X165000000Y-98275000D03*
X165000000Y-99925000D03*
D11*
X156975000Y-108641424D03*
X158625000Y-108641424D03*
D12*
X149076000Y-118841424D03*
X149076000Y-120491424D03*
D13*
X133700000Y-95000000D03*
X131800000Y-95000000D03*
X156450000Y-98500000D03*
X154550000Y-98500000D03*
D14*
X142350000Y-118891424D03*
X142350000Y-120441424D03*
D15*
X154500000Y-100700000D03*
X156050000Y-100700000D03*
D11*
X156975000Y-107041424D03*
X158625000Y-107041424D03*
D15*
X137925000Y-111600000D03*
X139475000Y-111600000D03*
D16*
X141750000Y-93300000D03*
X141750000Y-96100000D03*
D10*
X156837047Y-119750000D03*
X156837047Y-118100000D03*
D11*
X152575000Y-105341424D03*
X154225000Y-105341424D03*
X152575000Y-109841424D03*
X154225000Y-109841424D03*
D17*
X160325000Y-107650000D03*
X160325000Y-108300000D03*
X160325000Y-108950000D03*
X162225000Y-108950000D03*
X162225000Y-108300000D03*
X162225000Y-107650000D03*
D18*
X139550000Y-98000000D03*
X141450000Y-98000000D03*
D19*
X143708000Y-95855000D03*
X144368000Y-95855000D03*
X145028000Y-95855000D03*
X145688000Y-95855000D03*
D20*
X143708000Y-92745000D03*
X144368000Y-92745000D03*
X145028000Y-92745000D03*
D21*
X145852000Y-93125000D03*
X143544000Y-93125000D03*
D22*
X144698000Y-93862000D03*
D20*
X145688000Y-92745000D03*
D23*
X162100000Y-111841424D03*
X160450000Y-111841424D03*
D10*
X158620000Y-102695000D03*
X158620000Y-101045000D03*
D12*
X147476000Y-118841424D03*
X147476000Y-120491424D03*
X153300000Y-100675000D03*
X153300000Y-102325000D03*
D24*
X145550000Y-120441424D03*
X145550000Y-118891424D03*
D23*
X162025000Y-105800000D03*
X160375000Y-105800000D03*
D25*
X158575000Y-115141424D03*
X157025000Y-115141424D03*
D12*
X140800000Y-118841424D03*
X140800000Y-120491424D03*
D14*
X140100000Y-103325000D03*
X140100000Y-104875000D03*
D11*
X152575000Y-112841424D03*
X154225000Y-112841424D03*
D23*
X158625000Y-111841424D03*
X156975000Y-111841424D03*
X162025000Y-99700000D03*
X160375000Y-99700000D03*
D25*
X139475000Y-110000000D03*
X137925000Y-110000000D03*
D23*
X154225000Y-108341424D03*
X152575000Y-108341424D03*
D11*
X156975000Y-110241424D03*
X158625000Y-110241424D03*
D25*
X154175000Y-114341424D03*
X152625000Y-114341424D03*
X136375000Y-111575000D03*
X134825000Y-111575000D03*
D24*
X150100000Y-102275000D03*
X150100000Y-100725000D03*
D26*
X162224989Y-104183575D03*
X162224989Y-103533575D03*
X162224989Y-102883575D03*
X160324989Y-102883575D03*
X160324989Y-103533575D03*
X160324989Y-104183575D03*
D27*
X140500000Y-83500000D03*
D28*
X155250000Y-83500000D03*
D25*
X154175000Y-111341424D03*
X152625000Y-111341424D03*
D23*
X158625000Y-116741424D03*
X156975000Y-116741424D03*
D16*
X154000000Y-96100000D03*
X154000000Y-93300000D03*
D14*
X145300000Y-100725000D03*
X145300000Y-102275000D03*
D29*
X158637500Y-97571064D03*
X161562500Y-97571064D03*
D30*
X148524547Y-115391424D03*
D31*
X147974547Y-114891424D03*
X147974547Y-114391424D03*
X147974547Y-113891424D03*
X147974547Y-113391424D03*
X147974547Y-112891424D03*
X147974547Y-112391424D03*
X147974547Y-111891424D03*
X147974547Y-111391424D03*
X147974547Y-110891424D03*
X147974547Y-110391424D03*
D30*
X148524547Y-109891424D03*
X148524547Y-109391424D03*
X148524547Y-108891424D03*
X148524547Y-108391424D03*
X148524547Y-107891424D03*
X148524547Y-107391424D03*
X148524547Y-106891424D03*
X148524547Y-106391424D03*
X148524547Y-105891424D03*
D32*
X147874547Y-105241424D03*
X147374547Y-105241424D03*
X146874547Y-105241424D03*
X146374547Y-105241424D03*
X145874547Y-105241424D03*
X144874547Y-105241424D03*
X144374547Y-105241424D03*
X143874547Y-105241424D03*
X142874547Y-105241424D03*
X142374547Y-105241424D03*
D30*
X141724547Y-105891424D03*
X141724547Y-106891424D03*
X141724547Y-107391424D03*
X141724547Y-107891424D03*
X141724547Y-108391424D03*
X141724547Y-109391424D03*
X141724547Y-109891424D03*
D33*
X142124547Y-110391424D03*
X142124547Y-111391424D03*
X142124547Y-111891424D03*
X142124547Y-112391424D03*
D31*
X142274547Y-113391424D03*
X142274547Y-113891424D03*
X142274547Y-114391424D03*
X142274547Y-114891424D03*
D30*
X141724547Y-115391424D03*
D32*
X142374547Y-116041424D03*
X142874547Y-116041424D03*
X143374547Y-116041424D03*
X143874547Y-116041424D03*
X144374547Y-116041424D03*
X144874547Y-116041424D03*
X145374547Y-116041424D03*
X145874547Y-116041424D03*
X146374547Y-116041424D03*
X146874547Y-116041424D03*
X147374547Y-116041424D03*
X147874547Y-116041424D03*
D34*
X145124547Y-110641424D03*
D35*
X148100000Y-96037500D03*
X148100000Y-98962500D03*
D16*
X136360000Y-105130000D03*
X136360000Y-102330000D03*
X139740000Y-100580000D03*
X136940000Y-100580000D03*
D36*
X134500000Y-91962500D03*
X134500000Y-85737500D03*
D37*
X132500000Y-97550000D03*
X132500000Y-99450000D03*
D14*
X154937047Y-118150000D03*
X154937047Y-119700000D03*
D11*
X156975000Y-113441424D03*
X158625000Y-113441424D03*
D23*
X162025000Y-115141424D03*
X160375000Y-115141424D03*
X134375000Y-114800000D03*
X132725000Y-114800000D03*
D19*
X139742000Y-92895000D03*
X139082000Y-92895000D03*
X138422000Y-92895000D03*
X137762000Y-92895000D03*
D20*
X139082000Y-96005000D03*
X138422000Y-96005000D03*
D21*
X137598000Y-95625000D03*
D20*
X139742000Y-96005000D03*
D22*
X138752000Y-94888000D03*
D20*
X137762000Y-96005000D03*
D21*
X139906000Y-95625000D03*
D10*
X151500000Y-119750000D03*
X151500000Y-118100000D03*
D15*
X152625000Y-106841424D03*
X154175000Y-106841424D03*
D25*
X156050000Y-102300000D03*
X154500000Y-102300000D03*
D12*
X134825000Y-106795000D03*
X134825000Y-108445000D03*
X153100000Y-118100000D03*
X153100000Y-119750000D03*
D29*
X134287500Y-97500000D03*
X137212500Y-97500000D03*
D19*
X150060000Y-95855000D03*
X150720000Y-95855000D03*
X151380000Y-95855000D03*
X152040000Y-95855000D03*
D20*
X150720000Y-92745000D03*
X152040000Y-92745000D03*
D21*
X152204000Y-93125000D03*
D20*
X150060000Y-92745000D03*
D21*
X149896000Y-93125000D03*
D22*
X151050000Y-93862000D03*
D20*
X151380000Y-92745000D03*
D11*
X137875000Y-108500000D03*
X139525000Y-108500000D03*
D12*
X143950000Y-118841424D03*
X143950000Y-120491424D03*
D23*
X158625000Y-103841424D03*
X156975000Y-103841424D03*
D25*
X136375000Y-110000000D03*
X134825000Y-110000000D03*
D11*
X160375000Y-116741424D03*
X162025000Y-116741424D03*
D10*
X138600000Y-104925000D03*
X138600000Y-103275000D03*
D36*
X161250000Y-91962500D03*
X161250000Y-85737500D03*
D23*
X162100000Y-101425000D03*
X160450000Y-101425000D03*
X137958576Y-116400000D03*
X136308576Y-116400000D03*
D18*
X162050000Y-95000000D03*
X163950000Y-95000000D03*
D15*
X152625000Y-103900000D03*
X154175000Y-103900000D03*
D19*
X157986000Y-92985000D03*
X157326000Y-92985000D03*
X156666000Y-92985000D03*
X156006000Y-92985000D03*
D21*
X158150000Y-95715000D03*
X155842000Y-95715000D03*
D20*
X157986000Y-96095000D03*
D22*
X156996000Y-94978000D03*
D20*
X156666000Y-96095000D03*
X157326000Y-96095000D03*
X156006000Y-96095000D03*
D25*
X137925000Y-113200000D03*
X136375000Y-113200000D03*
D12*
X143700000Y-100675000D03*
X143700000Y-102325000D03*
D23*
X134358576Y-116400000D03*
X132708576Y-116400000D03*
D24*
X142050000Y-102275000D03*
X142050000Y-100725000D03*
D10*
X146800000Y-102325000D03*
X146800000Y-100675000D03*
D12*
X148500000Y-100675000D03*
X148500000Y-102325000D03*
D23*
X137975000Y-114800000D03*
X136325000Y-114800000D03*
X158625000Y-105441424D03*
X156975000Y-105441424D03*
D11*
X152575000Y-115841424D03*
X154225000Y-115841424D03*
D23*
X162100000Y-110241424D03*
X160450000Y-110241424D03*
X137958576Y-118230000D03*
X136308576Y-118230000D03*
D24*
X151700000Y-102275000D03*
X151700000Y-100725000D03*
D25*
X139475000Y-107000000D03*
X137925000Y-107000000D03*
D14*
X151500000Y-108316424D03*
X151500000Y-109866424D03*
M02*
